<?xml version="1.0" encoding="UTF-8" standalone="no"?>
<!-- Created with Inkscape (http://www.inkscape.org/) -->

<svg
   xmlns:dc="http://purl.org/dc/elements/1.1/"
   xmlns:cc="http://creativecommons.org/ns#"
   xmlns:rdf="http://www.w3.org/1999/02/22-rdf-syntax-ns#"
   xmlns:svg="http://www.w3.org/2000/svg"
   xmlns="http://www.w3.org/2000/svg"
   xmlns:sodipodi="http://sodipodi.sourceforge.net/DTD/sodipodi-0.dtd"
   xmlns:inkscape="http://www.inkscape.org/namespaces/inkscape"
   id="svg2"
   version="1.1"
   inkscape:version="0.91 r13725"
   xml:space="preserve"
   width="185.7925"
   height="165.62875"
   viewBox="0 0 185.7925 165.62875"
   sodipodi:docname="Logo_SDISNV.svg"><metadata
     id="metadata8"><rdf:RDF><cc:Work
         rdf:about=""><dc:format>image/svg+xml</dc:format><dc:type
           rdf:resource="http://purl.org/dc/dcmitype/StillImage" /><dc:title></dc:title></cc:Work></rdf:RDF></metadata><defs
     id="defs6"><clipPath
       clipPathUnits="userSpaceOnUse"
       id="clipPath16"><path
         d="m 0,132.503 148.634,0 L 148.634,0 0,0 0,132.503 Z"
         id="path18"
         inkscape:connector-curvature="0" /></clipPath></defs><sodipodi:namedview
     pagecolor="#ffffff"
     bordercolor="#666666"
     borderopacity="1"
     objecttolerance="10"
     gridtolerance="10"
     guidetolerance="10"
     inkscape:pageopacity="0"
     inkscape:pageshadow="2"
     inkscape:window-width="761"
     inkscape:window-height="480"
     id="namedview4"
     showgrid="false"
     inkscape:zoom="1.4248734"
     inkscape:cx="92.896248"
     inkscape:cy="82.11256"
     inkscape:window-x="922"
     inkscape:window-y="517"
     inkscape:window-maximized="0"
     inkscape:current-layer="g10" /><g
     id="g10"
     inkscape:groupmode="layer"
     inkscape:label="Logo_SDISNV"
     transform="matrix(1.25,0,0,-1.25,0,165.62875)"><g
       id="g12"><g
         id="g14"
         clip-path="url(#clipPath16)"><g
           id="g20"
           transform="translate(100.4312,43.1094)"><path
             d="m 0,0 c 0.16,-0.026 0.395,-0.052 0.721,-0.052 l 23.7,0 c 8.443,0 13.645,4.109 16.373,12.931 1.569,4.879 2.777,12.214 2.777,15.294 0,4.598 -1.825,7.182 -6.307,8.925 l -10.185,3.824 c -3.755,1.405 -7.767,3.36 -7.767,8.79 0,2.955 1.014,6.457 2.525,8.714 2.298,3.409 5.431,4.075 10.065,4.075 l 12.583,0 c 2.358,0 2.37,0.045 2.896,2.447 l 0.822,3.645 -19.404,0 c -8.418,0 -11.651,-1.971 -14.139,-5.149 -2.799,-3.538 -6.103,-14.655 -6.103,-20.518 0,-4.166 1.029,-6.548 6.859,-8.827 l 9.532,-3.525 c 4.75,-1.778 7.322,-3.769 7.322,-9.187 0,-2.457 -0.811,-5.991 -1.931,-8.405 C 27.629,7.464 22.738,6.727 18.312,6.727 l -4.999,0 c -2.106,0 -9.444,0 -11.529,1.472 L 0.193,1.117 C 0.078,0.675 0.016,0.302 0,0"
             style="fill:#e73c35;fill-opacity:1;fill-rule:nonzero;stroke:none"
             id="path22"
             inkscape:connector-curvature="0" /></g><g
           id="g24"
           transform="translate(108.5103,96.9766)"><path
             d="m 0,0 c 0.218,0.988 -0.771,0.883 -0.771,0.883 l -0.899,0 -9.515,0 c 0.206,-0.498 0.309,-1.075 0.309,-1.715 0,-0.999 -0.216,-2.013 -0.576,-3.568 L -21.88,-52.749 c 0,0 -0.211,-0.648 0.168,-0.945 0.205,-0.162 0.473,-0.179 0.473,-0.179 l 10.269,0 c -0.189,0.495 -0.283,1.066 -0.283,1.717 0,1.031 0.142,2.065 0.489,3.568 l 10.462,47.203 c 0,0 0.119,0.548 0.302,1.385"
             style="fill:#e73c35;fill-opacity:1;fill-rule:nonzero;stroke:none"
             id="path26"
             inkscape:connector-curvature="0" /></g><g
           id="g28"
           transform="translate(8.8647,25.3008)"><path
             d="m 0,0 0,-4.982 -1.401,0 0,8.032 1.156,0 5.89,-5.247 c 0.379,-0.323 0.682,-0.682 0.967,-1.098 -0.095,0.51 -0.134,1.003 -0.134,1.496 l 0,4.849 1.401,0 0,-8.032 -1.041,0 -6.005,5.324 C 0.474,0.664 0.151,1.005 -0.113,1.439 -0.037,0.967 0,0.474 0,0"
             style="fill:#5c5c5b;fill-opacity:1;fill-rule:nonzero;stroke:none"
             id="path30"
             inkscape:connector-curvature="0" /></g><path
           d="m 28.487,27.158 -6.706,0 0,-5.626 6.706,0 0,5.626 z m -6.253,1.193 5.796,0 c 1.537,0 1.97,-0.455 1.97,-1.914 l 0,-4.223 c 0,-1.478 -0.453,-1.896 -1.97,-1.896 l -5.796,0 c -1.532,0 -1.967,0.399 -1.967,1.896 l 0,4.223 c 0,1.459 0.435,1.914 1.967,1.914"
           style="fill:#5c5c5b;fill-opacity:1;fill-rule:nonzero;stroke:none"
           id="path32"
           inkscape:connector-curvature="0" /><g
           id="g34"
           transform="translate(35.0386,27.1758)"><path
             d="m 0,0 0,-2.596 4.281,0 c 0.662,0 0.852,0.172 0.852,0.816 l 0,0.965 C 5.133,-0.151 4.849,0 4.281,0 L 0,0 Z m -1.515,1.175 6.458,0 c 1.175,0 1.686,-0.436 1.686,-1.554 l 0,-1.798 c 0,-1.099 -0.511,-1.535 -1.686,-1.535 l -1.061,0 3.542,-3.145 -2.025,0 -3.201,3.145 -2.198,0 0,-3.145 -1.515,0 0,8.032 z"
             style="fill:#5c5c5b;fill-opacity:1;fill-rule:nonzero;stroke:none"
             id="path36"
             inkscape:connector-curvature="0" /></g><g
           id="g38"
           transform="translate(47.2729,27.1582)"><path
             d="m 0,0 0,-5.626 2.936,0 c 2.425,0 3.619,0.662 3.619,2.84 C 6.555,-0.683 5.342,0 2.936,0 L 0,0 Z m 6.326,0.566 c 1.08,-0.68 1.744,-1.93 1.744,-3.371 0,-2.726 -1.649,-4.035 -4.964,-4.035 l -4.622,0 0,8.032 4.622,0 c 1.421,0 2.502,-0.17 3.22,-0.626"
             style="fill:#5c5c5b;fill-opacity:1;fill-rule:nonzero;stroke:none"
             id="path40"
             inkscape:connector-curvature="0" /></g><g
           id="g42"
           transform="translate(64.5815,28.3506)"><path
             d="M 0,0 1.631,0 5.229,-6.459 8.677,0 10.173,0 5.779,-8.032 4.623,-8.032 0,0 Z"
             style="fill:#5c5c5b;fill-opacity:1;fill-rule:nonzero;stroke:none"
             id="path44"
             inkscape:connector-curvature="0" /></g><g
           id="g46"
           transform="translate(82.4604,23.3496)"><path
             d="M 0,0 -2.141,3.826 -4.262,0 0,0 Z m -2.803,5.001 1.383,0 4.754,-8.032 -1.648,0 -1.041,1.876 -5.55,0 -1.023,-1.876 -1.516,0 4.641,8.032 z"
             style="fill:#5c5c5b;fill-opacity:1;fill-rule:nonzero;stroke:none"
             id="path48"
             inkscape:connector-curvature="0" /></g><g
           id="g50"
           transform="translate(89.7144,21.5322)"><path
             d="m 0,0 5.872,0 0,6.818 1.534,0 0,-6.136 c 0,-1.459 -0.416,-1.896 -1.969,-1.896 l -4.982,0 c -1.517,0 -1.971,0.418 -1.971,1.896 l 0,6.136 L 0,6.818 0,0 Z"
             style="fill:#5c5c5b;fill-opacity:1;fill-rule:nonzero;stroke:none"
             id="path52"
             inkscape:connector-curvature="0" /></g><g
           id="g54"
           transform="translate(102.9702,27.1582)"><path
             d="m 0,0 0,-5.626 2.937,0 c 2.424,0 3.618,0.662 3.618,2.84 C 6.555,-0.683 5.342,0 2.937,0 L 0,0 Z M 6.326,0.566 C 7.407,-0.114 8.07,-1.364 8.07,-2.805 8.07,-5.531 6.423,-6.84 3.107,-6.84 l -4.622,0 0,8.032 4.622,0 c 1.422,0 2.5,-0.17 3.219,-0.626"
             style="fill:#5c5c5b;fill-opacity:1;fill-rule:nonzero;stroke:none"
             id="path56"
             inkscape:connector-curvature="0" /></g><path
           d="m 122.667,27.158 -6.705,0 0,-5.626 6.705,0 0,5.626 z m -6.249,1.193 5.796,0 c 1.533,0 1.97,-0.455 1.97,-1.914 l 0,-4.223 c 0,-1.478 -0.454,-1.896 -1.97,-1.896 l -5.796,0 c -1.535,0 -1.969,0.399 -1.969,1.896 l 0,4.223 c 0,1.459 0.434,1.914 1.969,1.914"
           style="fill:#5c5c5b;fill-opacity:1;fill-rule:nonzero;stroke:none"
           id="path58"
           inkscape:connector-curvature="0" /><path
           d="m 127.667,28.331 1.514,0 0,-8.013 -1.514,0 0,8.013 z"
           style="fill:#5c5c5b;fill-opacity:1;fill-rule:nonzero;stroke:none"
           id="path60"
           inkscape:connector-curvature="0" /><g
           id="g62"
           transform="translate(134.3149,27.1582)"><path
             d="m 0,0 0,-2.085 5.152,0 c 1.535,0 1.952,-0.454 1.952,-1.894 l 0,-0.965 c 0,-1.478 -0.436,-1.896 -1.952,-1.896 l -4.886,0 c -1.537,0 -1.97,0.418 -1.97,1.896 l 0,0.227 1.381,0.283 0,-1.192 6.063,0 0,2.253 -5.173,0 c -1.513,0 -1.951,0.418 -1.951,1.894 l 0,0.758 c 0,1.496 0.455,1.913 1.951,1.913 l 4.471,0 c 1.402,0 1.971,-0.379 1.971,-1.761 l 0,-0.189 L 5.625,-1.062 5.625,0 0,0 Z"
             style="fill:#5c5c5b;fill-opacity:1;fill-rule:nonzero;stroke:none"
             id="path64"
             inkscape:connector-curvature="0" /></g><g
           id="g66"
           transform="translate(141.48,12.3662)"><path
             d="m 0,0 -134.035,0 c -0.359,0 -0.65,0.29 -0.65,0.649 0,0.359 0.291,0.651 0.65,0.651 L 0,1.3 C 0.359,1.3 0.65,1.008 0.65,0.649 0.65,0.29 0.359,0 0,0"
             style="fill:#e73c35;fill-opacity:1;fill-rule:nonzero;stroke:none"
             id="path68"
             inkscape:connector-curvature="0" /></g><path
           d="m 7.579,5.288 1.001,0 0,-5.288 -1.001,0 0,5.288 z"
           style="fill:#5c5c5b;fill-opacity:1;fill-rule:nonzero;stroke:none"
           id="path70"
           inkscape:connector-curvature="0" /><g
           id="g72"
           transform="translate(12.0649,3.2881)"><path
             d="m 0,0 0,-3.288 -0.926,0 0,5.303 0.763,0 3.889,-3.464 c 0.249,-0.212 0.449,-0.45 0.637,-0.725 -0.064,0.338 -0.088,0.662 -0.088,0.988 l 0,3.201 0.927,0 0,-5.303 -0.687,0 -3.964,3.514 C 0.312,0.437 0.1,0.663 -0.076,0.951 -0.024,0.64 0,0.313 0,0"
             style="fill:#5c5c5b;fill-opacity:1;fill-rule:nonzero;stroke:none"
             id="path74"
             inkscape:connector-curvature="0" /></g><g
           id="g76"
           transform="translate(20.7227,4.5137)"><path
             d="m 0,0 0,-3.712 3.701,0 0,1.263 0.999,-0.188 0,-0.627 c 0,-0.974 -0.299,-1.25 -1.299,-1.25 l -3.111,0 c -1.027,0 -1.289,0.276 -1.289,1.25 l 0,2.789 c 0,0.976 0.275,1.264 1.289,1.264 l 3.111,0 C 4.39,0.789 4.7,0.512 4.7,-0.475 l 0,-0.5 L 3.701,-1.137 3.701,0 0,0 Z"
             style="fill:#5c5c5b;fill-opacity:1;fill-rule:nonzero;stroke:none"
             id="path78"
             inkscape:connector-curvature="0" /></g><g
           id="g80"
           transform="translate(27.6816,5.3027)"><path
             d="m 0,0 5.338,0 0,-0.789 -4.336,0 0,-1.362 2.611,0 0,-0.788 -2.611,0 0,-1.588 4.388,0 0,-0.776 -5.39,0 L 0,0 Z"
             style="fill:#5c5c5b;fill-opacity:1;fill-rule:nonzero;stroke:none"
             id="path82"
             inkscape:connector-curvature="0" /></g><g
           id="g84"
           transform="translate(36.0039,3.2881)"><path
             d="m 0,0 0,-3.288 -0.924,0 0,5.303 0.761,0 3.889,-3.464 c 0.249,-0.212 0.45,-0.45 0.637,-0.725 -0.062,0.338 -0.088,0.662 -0.088,0.988 l 0,3.201 0.927,0 0,-5.303 -0.689,0 -3.962,3.514 C 0.313,0.437 0.101,0.663 -0.074,0.951 -0.024,0.64 0,0.313 0,0"
             style="fill:#5c5c5b;fill-opacity:1;fill-rule:nonzero;stroke:none"
             id="path86"
             inkscape:connector-curvature="0" /></g><g
           id="g88"
           transform="translate(45.2017,4.5137)"><path
             d="m 0,0 0,-3.712 1.937,0 c 1.6,0 2.387,0.437 2.387,1.874 C 4.324,-0.448 3.524,0 1.937,0 L 0,0 Z m 4.176,0.375 c 0.712,-0.45 1.147,-1.275 1.147,-2.225 0,-1.799 -1.088,-2.664 -3.274,-2.664 l -3.05,0 0,5.303 3.05,0 c 0.938,0 1.649,-0.114 2.127,-0.414"
             style="fill:#5c5c5b;fill-opacity:1;fill-rule:nonzero;stroke:none"
             id="path90"
             inkscape:connector-curvature="0" /></g><path
           d="m 53.009,5.288 1,0 0,-5.288 -1,0 0,5.288 z"
           style="fill:#5c5c5b;fill-opacity:1;fill-rule:nonzero;stroke:none"
           id="path92"
           inkscape:connector-curvature="0" /><g
           id="g94"
           transform="translate(56.5698,5.3027)"><path
             d="m 0,0 5.338,0 0,-0.789 -4.338,0 0,-1.362 2.613,0 0,-0.788 -2.613,0 0,-1.588 4.389,0 0,-0.776 L 0,-5.303 0,0 Z"
             style="fill:#5c5c5b;fill-opacity:1;fill-rule:nonzero;stroke:none"
             id="path96"
             inkscape:connector-curvature="0" /></g><g
           id="g98"
           transform="translate(69.1167,5.3027)"><path
             d="m 0,0 5.34,0 0,-0.789 -4.339,0 0,-1.362 2.612,0 0,-0.788 -2.612,0 0,-1.588 4.388,0 0,-0.776 L 0,-5.303 0,0 Z"
             style="fill:#5c5c5b;fill-opacity:1;fill-rule:nonzero;stroke:none"
             id="path100"
             inkscape:connector-curvature="0" /></g><g
           id="g102"
           transform="translate(79.064,0)"><path
             d="m 0,0 -1,0 0,4.514 -2.499,0 0,0.789 6.013,0 0,-0.789 L 0,4.514 0,0 Z"
             style="fill:#5c5c5b;fill-opacity:1;fill-rule:nonzero;stroke:none"
             id="path104"
             inkscape:connector-curvature="0" /></g><g
           id="g106"
           transform="translate(88.1812,4.5137)"><path
             d="m 0,0 0,-1.376 3.398,0 c 1.014,0 1.289,-0.299 1.289,-1.249 l 0,-0.639 c 0,-0.974 -0.289,-1.25 -1.289,-1.25 l -3.224,0 c -1.014,0 -1.302,0.276 -1.302,1.25 l 0,0.152 0.914,0.187 0,-0.787 3.999,0 0,1.487 -3.411,0 c -1,0 -1.287,0.276 -1.287,1.25 l 0,0.5 c 0,0.987 0.3,1.264 1.287,1.264 l 2.95,0 c 0.925,0 1.301,-0.251 1.301,-1.164 L 4.625,-0.5 3.711,-0.699 3.711,0 0,0 Z"
             style="fill:#5c5c5b;fill-opacity:1;fill-rule:nonzero;stroke:none"
             id="path108"
             inkscape:connector-curvature="0" /></g><g
           id="g110"
           transform="translate(95.314,5.3027)"><path
             d="m 0,0 5.338,0 0,-0.789 -4.338,0 0,-1.362 2.613,0 0,-0.788 -2.613,0 0,-1.588 4.389,0 0,-0.776 L 0,-5.303 0,0 Z"
             style="fill:#5c5c5b;fill-opacity:1;fill-rule:nonzero;stroke:none"
             id="path112"
             inkscape:connector-curvature="0" /></g><g
           id="g114"
           transform="translate(103.5854,4.5137)"><path
             d="m 0,0 0,-3.712 3.699,0 0,1.263 1,-0.188 0,-0.627 c 0,-0.974 -0.299,-1.25 -1.299,-1.25 l -3.112,0 c -1.026,0 -1.288,0.276 -1.288,1.25 l 0,2.789 c 0,0.976 0.275,1.264 1.288,1.264 l 3.112,0 c 0.987,0 1.299,-0.277 1.299,-1.264 l 0,-0.5 -1,-0.162 L 3.699,0 0,0 Z"
             style="fill:#5c5c5b;fill-opacity:1;fill-rule:nonzero;stroke:none"
             id="path116"
             inkscape:connector-curvature="0" /></g><path
           d="m 115.845,4.514 -4.426,0 0,-3.712 4.426,0 0,3.712 z m -4.125,0.789 3.824,0 c 1.014,0 1.301,-0.301 1.301,-1.264 l 0,-2.789 c 0,-0.975 -0.3,-1.25 -1.301,-1.25 l -3.824,0 c -1.012,0 -1.299,0.263 -1.299,1.25 l 0,2.789 c 0,0.963 0.287,1.264 1.299,1.264"
           style="fill:#5c5c5b;fill-opacity:1;fill-rule:nonzero;stroke:none"
           id="path118"
           inkscape:connector-curvature="0" /><g
           id="g120"
           transform="translate(120.3032,0.8018)"><path
             d="m 0,0 3.875,0 0,4.501 1.013,0 0,-4.053 c 0,-0.961 -0.275,-1.25 -1.3,-1.25 l -3.289,0 C -0.7,-0.802 -1,-0.526 -1,0.448 l 0,4.053 1,0 L 0,0 Z"
             style="fill:#5c5c5b;fill-opacity:1;fill-rule:nonzero;stroke:none"
             id="path122"
             inkscape:connector-curvature="0" /></g><g
           id="g124"
           transform="translate(128.7749,4.5254)"><path
             d="m 0,0 0,-1.711 2.826,0 c 0.436,0 0.561,0.112 0.561,0.536 l 0,0.637 C 3.387,-0.1 3.2,0 2.826,0 L 0,0 Z m -1,0.777 4.262,0 c 0.775,0 1.112,-0.288 1.112,-1.027 l 0,-1.186 c 0,-0.726 -0.337,-1.013 -1.112,-1.013 l -0.699,0 2.335,-2.076 -1.335,0 -2.113,2.076 -1.45,0 0,-2.076 -1,0 0,5.302 z"
             style="fill:#5c5c5b;fill-opacity:1;fill-rule:nonzero;stroke:none"
             id="path126"
             inkscape:connector-curvature="0" /></g><g
           id="g128"
           transform="translate(136.5337,4.5137)"><path
             d="m 0,0 0,-1.376 3.399,0 c 1.014,0 1.289,-0.299 1.289,-1.249 l 0,-0.639 c 0,-0.974 -0.287,-1.25 -1.289,-1.25 l -3.224,0 c -1.013,0 -1.301,0.276 -1.301,1.25 l 0,0.152 0.912,0.187 0,-0.787 4.002,0 0,1.487 -3.414,0 c -0.998,0 -1.285,0.276 -1.285,1.25 l 0,0.5 c 0,0.987 0.299,1.264 1.285,1.264 l 2.951,0 c 0.926,0 1.299,-0.251 1.299,-1.164 L 4.624,-0.5 3.712,-0.699 3.712,0 0,0 Z"
             style="fill:#5c5c5b;fill-opacity:1;fill-rule:nonzero;stroke:none"
             id="path130"
             inkscape:connector-curvature="0" /></g><g
           id="g132"
           transform="translate(30.9985,71.7559)"><path
             d="m 0,0 -9.524,3.521 c -6.865,2.686 -8.204,5.976 -8.204,10.758 0,6.317 3.488,17.928 6.549,21.796 2.785,3.556 6.533,5.929 15.75,5.929 l 21.979,0 -1.389,-6.155 c -0.685,-3.137 -1.414,-4.052 -4.902,-4.052 l -12.584,0 c -4.711,0 -6.741,-0.77 -8.359,-3.167 -1.278,-1.91 -2.174,-5.022 -2.174,-7.565 0,-3.746 2.261,-5.303 6.431,-6.863 l 10.188,-3.824 c 0.967,-0.375 1.832,-0.796 2.605,-1.263 0.744,2.139 1.494,3.983 2.237,5.453 5.23,10.232 11.315,13.858 23.757,14.051 -2.312,18.117 -17.777,32.128 -36.523,32.128 -20.343,0 -36.836,-16.494 -36.836,-36.837 0,-20.053 16.029,-36.352 35.974,-36.812 0.603,1.876 1.011,4.05 1.011,5.642 C 5.986,-3.318 4.7,-1.758 0,0"
             style="fill:#3a3286;fill-opacity:1;fill-rule:nonzero;stroke:none"
             id="path134"
             inkscape:connector-curvature="0" /></g><g
           id="g136"
           transform="translate(98.8149,101.1016)"><path
             d="m 0,0 c 7.769,-1.251 13.102,0.253 14.175,6.186 0.652,3.614 -1.114,5.021 3.885,11.98 0,0 -6.623,-3.525 -7.434,-9.075 0,0 -2.313,2.183 2.893,10.049 6.072,9.179 -3.863,9.844 -3.863,9.844 0,0 7.142,-0.048 -1.628,-10.472 C 1.646,10.927 -2.063,4.289 0,0"
             style="fill:#f39415;fill-opacity:1;fill-rule:nonzero;stroke:none"
             id="path138"
             inkscape:connector-curvature="0" /></g><g
           id="g140"
           transform="translate(97.3296,112.248)"><path
             d="m 0,0 -0.896,0 -9.514,0 c 0.203,-0.499 0.308,-1.078 0.308,-1.717 0,-0.999 -0.216,-2.012 -0.579,-3.567 l -1.895,-8.648 -10.363,0 c -12.386,0 -17.969,-3.145 -22.978,-12.941 -0.843,-1.663 -1.681,-3.794 -2.47,-6.178 -0.153,-0.654 -0.299,-1.287 -0.44,-1.914 -1.015,1.212 -2.482,2.156 -4.478,2.933 l -10.183,3.824 c -3.758,1.405 -7.768,3.361 -7.768,8.79 0,2.956 1.015,6.457 2.526,8.714 2.298,3.41 5.429,4.076 10.065,4.076 l 12.583,0 c 2.356,0 2.369,0.045 2.895,2.446 l 0.822,3.645 -19.405,0 c -8.416,0 -11.648,-1.97 -14.138,-5.15 -2.799,-3.537 -6.102,-14.652 -6.102,-20.519 0,-4.163 1.027,-6.546 6.858,-8.825 l 9.531,-3.524 c 4.751,-1.779 7.324,-3.769 7.324,-9.189 0,-2.455 -0.812,-5.989 -1.932,-8.403 -2.71,-5.519 -7.6,-6.257 -12.027,-6.257 l -4.999,0 c -2.106,0 -9.444,0 -11.53,1.473 l -1.591,-7.083 c -0.114,-0.441 -0.177,-0.813 -0.193,-1.117 0.161,-0.026 0.397,-0.049 0.724,-0.049 l 23.699,0 c 6.48,0 11.044,2.429 14.053,7.543 0.192,-1.945 0.524,-2.636 0.524,-2.636 1.797,-3.461 5.431,-5.027 11.301,-5.027 7.549,0 11.556,1.016 12.822,3.093 l 2.303,4.074 c 0.421,0.66 0.797,1.357 1.225,2.26 -1.353,-0.372 -2.914,-0.551 -4.708,-0.551 -8.444,0 -14.255,-0.368 -13.925,8.529 0.189,5.026 2.539,15.65 5.223,21.852 2.822,6.533 6.453,8.741 14.389,8.741 l 8.729,-0.086 -10.223,-46.642 c 0,0 -0.211,-0.649 0.167,-0.947 0.207,-0.161 0.474,-0.177 0.474,-0.177 l 10.27,0 c -0.191,0.495 -0.283,1.066 -0.283,1.715 0,1.034 0.14,2.067 0.489,3.569 l 13.789,61.6 c 0,0 0.117,0.549 0.3,1.385 C 0.99,0.104 0,0 0,0"
             style="fill:#e73c35;fill-opacity:1;fill-rule:nonzero;stroke:none"
             id="path142"
             inkscape:connector-curvature="0" /></g></g></g></g></svg>