<?xml version="1.0" encoding="UTF-8" standalone="no"?>
<!-- Created with Inkscape (http://www.inkscape.org/) -->

<svg
   xmlns:dc="http://purl.org/dc/elements/1.1/"
   xmlns:cc="http://creativecommons.org/ns#"
   xmlns:rdf="http://www.w3.org/1999/02/22-rdf-syntax-ns#"
   xmlns:svg="http://www.w3.org/2000/svg"
   xmlns="http://www.w3.org/2000/svg"
   xmlns:sodipodi="http://sodipodi.sourceforge.net/DTD/sodipodi-0.dtd"
   xmlns:inkscape="http://www.inkscape.org/namespaces/inkscape"
   id="svg2"
   version="1.1"
   inkscape:version="0.91 r13725"
   xml:space="preserve"
   width="152.5"
   height="171.25"
   viewBox="0 0 152.5 171.25"
   sodipodi:docname="YLB_Etroit_NB.svg"
   inkscape:export-filename="S:\02_Administration\Logos\Logos_YLB_PC\NB\YLB_etroit_noir.png"
   inkscape:export-xdpi="90"
   inkscape:export-ydpi="90"><metadata
     id="metadata8"><rdf:RDF><cc:Work
         rdf:about=""><dc:format>image/svg+xml</dc:format><dc:type
           rdf:resource="http://purl.org/dc/dcmitype/StillImage" /><dc:title></dc:title></cc:Work></rdf:RDF></metadata><defs
     id="defs6" /><sodipodi:namedview
     pagecolor="#ffffff"
     bordercolor="#666666"
     borderopacity="1"
     objecttolerance="10"
     gridtolerance="10"
     guidetolerance="10"
     inkscape:pageopacity="0"
     inkscape:pageshadow="2"
     inkscape:window-width="1563"
     inkscape:window-height="1178"
     id="namedview4"
     showgrid="false"
     inkscape:zoom="1.3781022"
     inkscape:cx="56.295021"
     inkscape:cy="84.899364"
     inkscape:window-x="601"
     inkscape:window-y="40"
     inkscape:window-maximized="0"
     inkscape:current-layer="g10" /><g
     id="g10"
     inkscape:groupmode="layer"
     inkscape:label="ink_ext_XXXXXX"
     transform="matrix(1.25,0,0,-1.25,0,171.25)"><g
       id="g12"
       transform="scale(0.1,0.1)"><path
         d="m 7.40234,1367.8 1204.72766,0 0,-1360.63203 -1204.72766,0 0,1360.63203"
         style="fill:#ffffff;fill-opacity:1;fill-rule:nonzero;stroke:none"
         id="path14"
         inkscape:connector-curvature="0" /><path
         d="m 28.6641,1346.54 1162.2059,0 0,-1318.1142 -1162.2059,0 0,1318.1142"
         style="fill:#231f20;fill-opacity:1;fill-rule:nonzero;stroke:none"
         id="path16"
         inkscape:connector-curvature="0" /><path
         d="m 71.1797,666.223 1077.1703,0 0,-595.2777 -1077.1703,0 0,595.2777"
         style="fill:#ffffff;fill-opacity:1;fill-rule:nonzero;stroke:none"
         id="path18"
         inkscape:connector-curvature="0" /><path
         d="m 244.246,708.742 -173.0624,0 -0.0039,32.293 c 7.5273,0.945 15.3984,1.485 23.7305,1.485 59.3948,0 95.3828,-27.407 149.3358,-33.778 z m 343.285,0 -298.664,0 c 53.953,6.371 89.942,33.778 149.332,33.778 59.395,0 95.383,-27.407 149.332,-33.778 z m 343.289,0 -298.664,0 c 53.953,6.371 89.942,33.778 149.332,33.778 59.391,0 95.379,-27.407 149.332,-33.778 z m 217.53,32.313 0,-32.313 -172.905,0 c 53.945,6.371 89.945,33.778 149.335,33.778 8.27,0 16.09,-0.532 23.57,-1.465 z m 0,121.679 0,-45.394 c -7.48,0.933 -15.3,1.465 -23.57,1.465 -67.21,0 -104.44,-35.09 -171.647,-35.09 -67.203,0 -104.442,35.09 -171.645,35.09 -67.203,0 -104.441,-35.09 -171.644,-35.09 -67.203,0 -104.442,35.09 -171.645,35.09 -67.203,0 -104.441,-35.09 -171.644,-35.09 -67.203,0 -104.442,35.09 -171.6448,35.09 -8.3321,0 -16.2032,-0.539 -23.7305,-1.485 l 0,45.395 c 7.5273,0.922 15.3984,1.453 23.7305,1.453 67.2028,0 104.4418,-34.328 171.6448,-34.328 67.203,0 104.441,34.328 171.644,34.328 67.203,0 104.442,-34.328 171.645,-34.328 67.203,0 104.441,34.328 171.644,34.328 67.203,0 104.442,-34.328 171.645,-34.328 67.207,0 104.437,34.328 171.647,34.328 8.27,0 16.09,-0.52 23.57,-1.434 z m 0,121.789 0,-45.503 c -7.48,0.91 -15.3,1.433 -23.57,1.433 -67.21,0 -104.44,-34.328 -171.647,-34.328 -67.203,0 -104.442,34.328 -171.645,34.328 -67.203,0 -104.441,-34.328 -171.644,-34.328 -67.203,0 -104.442,34.328 -171.645,34.328 -67.203,0 -104.441,-34.328 -171.644,-34.328 -67.203,0 -104.442,34.328 -171.6448,34.328 -8.3321,0 -16.2032,-0.527 -23.7305,-1.453 l 0,45.504 c 7.5273,0.906 15.3984,1.422 23.7305,1.422 67.2028,0 104.4418,-33.567 171.6448,-33.567 67.203,0 104.441,33.567 171.644,33.567 67.203,0 104.442,-33.567 171.645,-33.567 67.203,0 104.441,33.567 171.644,33.567 67.203,0 104.442,-33.567 171.645,-33.567 67.207,0 104.437,33.567 171.647,33.567 8.27,0 16.09,-0.508 23.57,-1.403 z m 0,121.677 0,-45.39 c -7.48,0.89 -15.3,1.4 -23.57,1.4 -67.21,0 -104.44,-33.57 -171.647,-33.57 -67.203,0 -104.442,33.57 -171.645,33.57 -67.203,0 -104.441,-33.57 -171.644,-33.57 -67.203,0 -104.442,33.57 -171.645,33.57 -67.203,0 -104.441,-33.57 -171.644,-33.57 -67.203,0 -104.442,33.57 -171.6448,33.57 -8.3321,0 -16.2032,-0.51 -23.7305,-1.42 l 0,45.39 c 7.5273,0.89 15.3984,1.39 23.7305,1.39 67.2028,0 104.4418,-32.8 171.6448,-32.8 67.203,0 104.441,32.8 171.644,32.8 67.203,0 104.442,-32.8 171.645,-32.8 67.203,0 104.441,32.8 171.644,32.8 67.203,0 104.442,-32.8 171.645,-32.8 67.207,0 104.437,32.8 171.647,32.8 8.27,0 16.09,-0.5 23.57,-1.37 z m 0,121.68 0,-45.39 c -7.48,0.87 -15.3,1.37 -23.57,1.37 -67.21,0 -104.44,-32.81 -171.647,-32.81 -67.203,0 -104.442,32.81 -171.645,32.81 -67.203,0 -104.441,-32.81 -171.644,-32.81 -67.203,0 -104.442,32.81 -171.645,32.81 -67.203,0 -104.441,-32.81 -171.644,-32.81 -67.203,0 -104.442,32.81 -171.6448,32.81 -8.3321,0 -16.2032,-0.5 -23.7305,-1.39 l 0,45.39 c 7.5273,0.87 15.3984,1.36 23.7305,1.36 67.2028,0 104.4418,-32.04 171.6448,-32.04 67.203,0 104.441,32.04 171.644,32.04 67.203,0 104.442,-32.04 171.645,-32.04 67.203,0 104.441,32.04 171.644,32.04 67.203,0 104.442,-32.04 171.645,-32.04 67.207,0 104.437,32.04 171.647,32.04 8.27,0 16.09,-0.49 23.57,-1.34 z m -341.998,76.14 293.558,0 c -52.54,-6.32 -88.33,-30.56 -146.777,-30.56 -58.449,0 -94.235,24.24 -146.781,30.56 z m -343.289,0 293.562,0 c -52.547,-6.32 -88.332,-30.56 -146.781,-30.56 -58.449,0 -94.235,24.24 -146.781,30.56 z m -343.286,0 293.559,0 c -52.547,-6.32 -88.332,-30.56 -146.781,-30.56 -58.45,0 -94.235,24.24 -146.778,30.56"
         style="fill:#ffffff;fill-opacity:1;fill-rule:nonzero;stroke:none"
         id="path20"
         inkscape:connector-curvature="0" /><path
         d="m 131.715,188.043 31.238,0 0,157.082 -31.238,0 0,-157.082"
         style="fill:#231f20;fill-opacity:1;fill-rule:nonzero;stroke:none"
         id="path22"
         inkscape:connector-curvature="0" /><path
         d="m 295.398,237.32 c 2.2,34.981 -16.503,67.543 -55.222,67.543 -34.539,0 -58.078,-25.961 -58.078,-60.062 0,-35.199 22.218,-59.84 58.078,-59.84 25.742,0 44.441,11.441 53.242,38.281 l -27.5,0 c -1.98,-7.039 -12.102,-14.738 -24.641,-14.738 -17.382,0 -27.058,9.019 -27.937,28.816 l 82.058,0 z m -82.058,19.801 c 0.437,8.801 6.156,24.199 25.957,24.199 15.18,0 22,-8.359 24.859,-24.199 l -50.816,0"
         style="fill:#231f20;fill-opacity:1;fill-rule:evenodd;stroke:none"
         id="path24"
         inkscape:connector-curvature="0" /><path
         d="m 308.395,225 c 1.32,-30.137 27.058,-40.039 53.46,-40.039 25.958,0 51.918,9.68 51.918,39.602 0,21.117 -17.816,27.722 -36.082,31.898 -17.816,4.184 -35.418,5.723 -35.418,16.941 0,9.239 10.34,10.559 17.379,10.559 11.223,0 20.461,-3.297 21.34,-15.398 l 29.703,0 c -2.422,27.937 -25.3,36.3 -50.16,36.3 -24.422,0 -49.5,-7.484 -49.5,-36.519 0,-20.02 18.039,-26.403 36.078,-30.36 22.442,-4.839 35.422,-8.14 35.422,-17.601 0,-11 -11.441,-14.524 -20.461,-14.524 -12.32,0 -23.761,5.504 -23.98,19.141 l -29.699,0"
         style="fill:#231f20;fill-opacity:1;fill-rule:nonzero;stroke:none"
         id="path26"
         inkscape:connector-curvature="0" /><path
         d="m 431.805,234.684 66.222,0 0,26.839 -66.222,0 0,-26.839"
         style="fill:#231f20;fill-opacity:1;fill-rule:nonzero;stroke:none"
         id="path28"
         inkscape:connector-curvature="0" /><path
         d="m 559.43,258 37.621,0 c 14.738,0 24.859,-6.379 24.859,-22.437 0,-16.282 -11.883,-20.684 -25.519,-20.684 l -36.961,0 0,43.121 z m -34.539,-69.957 76.117,0 c 28.383,0 55.445,13.637 55.445,45.539 0,19.582 -9.683,34.32 -28.824,39.82 13.644,6.598 21.34,17.379 21.34,32.782 0,29.257 -20.239,38.941 -50.16,38.941 l -73.918,0 0,-157.082 z m 34.539,130.238 32.34,0 c 12.32,0 23.761,-3.078 23.761,-18.039 0,-13.199 -9.019,-18.699 -21.121,-18.699 l -34.98,0 0,36.738"
         style="fill:#231f20;fill-opacity:1;fill-rule:evenodd;stroke:none"
         id="path30"
         inkscape:connector-curvature="0" /><path
         d="m 747.301,232.043 c 0,-6.82 -0.883,-26.184 -25.301,-26.184 -10.121,0 -19.145,2.864 -19.145,14.524 0,11.441 8.805,14.742 18.481,16.719 9.684,1.761 20.684,1.98 25.965,6.601 l 0,-11.66 z m -40.922,34.762 c 1.101,12.316 8.797,17.156 20.68,17.156 11,0 20.242,-1.977 20.242,-15.398 0,-12.762 -17.824,-12.102 -36.965,-14.961 -19.359,-2.641 -38.719,-8.801 -38.719,-34.539 0,-23.321 17.16,-34.102 38.719,-34.102 13.859,0 28.383,3.742 38.281,14.082 0.219,-3.738 1.098,-7.48 2.199,-11 l 31.68,0 c -2.859,4.617 -3.957,14.957 -3.957,25.301 l 0,59.179 c 0,27.278 -27.281,32.34 -49.941,32.34 -25.52,0 -51.7,-8.8 -53.457,-38.058 l 31.238,0"
         style="fill:#231f20;fill-opacity:1;fill-rule:evenodd;stroke:none"
         id="path32"
         inkscape:connector-curvature="0" /><path
         d="m 803.637,188.043 31.238,0 0,113.738 -31.238,0 0,-113.738 z m 31.238,157.082 -31.238,0 0,-25.742 31.238,0 0,25.742"
         style="fill:#231f20;fill-opacity:1;fill-rule:evenodd;stroke:none"
         id="path34"
         inkscape:connector-curvature="0" /><path
         d="m 859.516,188.043 31.242,0 0,59.617 c 0,23.106 7.262,32.563 24.199,32.563 14.52,0 20.02,-9.243 20.02,-27.938 l 0,-64.242 31.242,0 0,69.957 c 0,28.164 -8.36,46.863 -41.582,46.863 -13.199,0 -26.84,-6.16 -34.758,-18.918 l -0.66,0 0,15.836 -29.703,0 0,-113.738"
         style="fill:#231f20;fill-opacity:1;fill-rule:nonzero;stroke:none"
         id="path36"
         inkscape:connector-curvature="0" /><path
         d="m 984.469,225 c 1.32,-30.137 27.061,-40.039 53.461,-40.039 25.96,0 51.92,9.68 51.92,39.602 0,21.117 -17.82,27.722 -36.08,31.898 -17.82,4.184 -35.42,5.723 -35.42,16.941 0,9.239 10.34,10.559 17.38,10.559 11.22,0 20.46,-3.297 21.34,-15.398 l 29.7,0 c -2.42,27.937 -25.3,36.3 -50.16,36.3 -24.42,0 -49.501,-7.484 -49.501,-36.519 0,-20.02 18.041,-26.403 36.081,-30.36 22.44,-4.839 35.42,-8.14 35.42,-17.601 0,-11 -11.44,-14.524 -20.46,-14.524 -12.32,0 -23.76,5.504 -23.98,19.141 l -29.701,0"
         style="fill:#231f20;fill-opacity:1;fill-rule:nonzero;stroke:none"
         id="path38"
         inkscape:connector-curvature="0" /><path
         d="m 174.832,408.043 34.543,0 0,60.281 58.301,96.801 -38.5,0 -36.52,-62.043 -36.742,62.043 -38.941,0 57.859,-95.922 0,-61.16"
         style="fill:#231f20;fill-opacity:1;fill-rule:nonzero;stroke:none"
         id="path40"
         inkscape:connector-curvature="0" /><path
         d="m 371.445,521.781 -31.023,0 -23.977,-77.66 -0.441,0 -23.977,77.66 -32.781,0 38.942,-113.738 34.757,0 38.5,113.738"
         style="fill:#231f20;fill-opacity:1;fill-rule:nonzero;stroke:none"
         id="path42"
         inkscape:connector-curvature="0" /><path
         d="m 496.672,457.32 c 2.199,34.981 -16.504,67.543 -55.223,67.543 -34.539,0 -58.078,-25.961 -58.078,-60.062 0,-35.199 22.223,-59.84 58.078,-59.84 25.742,0 44.442,11.441 53.242,38.281 l -27.5,0 c -1.98,-7.039 -12.101,-14.738 -24.64,-14.738 -17.383,0 -27.059,9.019 -27.938,28.816 l 82.059,0 z m -82.059,19.801 c 0.438,8.801 6.16,24.199 25.957,24.199 15.18,0 22.004,-8.359 24.86,-24.199 l -50.817,0"
         style="fill:#231f20;fill-opacity:1;fill-rule:evenodd;stroke:none"
         id="path44"
         inkscape:connector-curvature="0" /><path
         d="m 519.68,408.043 31.238,0 0,51.262 c 0,20.019 7.918,36.519 30.801,36.519 3.738,0 8.359,-0.441 11.219,-1.101 l 0,29.039 c -1.977,0.664 -4.618,1.101 -6.817,1.101 -15.18,0 -30.582,-9.902 -36.305,-24.199 l -0.437,0 0,21.117 -29.699,0 0,-113.738"
         style="fill:#231f20;fill-opacity:1;fill-rule:nonzero;stroke:none"
         id="path46"
         inkscape:connector-curvature="0" /><path
         d="m 686.961,408.043 29.703,0 0,157.082 -31.242,0 0,-57.203 -0.438,0 0.215,0 c -7.258,11.223 -20.457,16.941 -33.875,16.941 -33.445,0 -50.383,-28.383 -50.383,-58.961 0,-31.461 16.723,-60.941 51.043,-60.941 14.52,0 27.278,5.281 34.539,17.602 l 0.438,0 0,-14.52 z m -0.438,57.199 c 0,-18.699 -6.16,-36.738 -26.839,-36.738 -19.364,0 -27.5,18.695 -27.5,36.519 0,18.7 7.039,36.297 27.5,36.297 20.242,0 26.839,-17.597 26.839,-36.078"
         style="fill:#231f20;fill-opacity:1;fill-rule:evenodd;stroke:none"
         id="path48"
         inkscape:connector-curvature="0" /><path
         d="m 741.16,464.801 c 0,-36.078 23.102,-59.84 58.738,-59.84 35.864,0 58.961,23.762 58.961,59.84 0,36.301 -23.097,60.062 -58.961,60.062 -35.636,0 -58.738,-23.761 -58.738,-60.062 z m 31.238,0 c 0,18.262 6.383,36.519 27.5,36.519 21.34,0 27.723,-18.257 27.723,-36.519 0,-18.039 -6.383,-36.297 -27.723,-36.297 -21.117,0 -27.5,18.258 -27.5,36.297"
         style="fill:#231f20;fill-opacity:1;fill-rule:evenodd;stroke:none"
         id="path50"
         inkscape:connector-curvature="0" /><path
         d="m 883.578,408.043 31.238,0 0,59.617 c 0,23.106 7.262,32.563 24.204,32.563 14.519,0 20.019,-9.243 20.019,-27.938 l 0,-64.242 31.238,0 0,69.957 c 0,28.164 -8.359,46.863 -41.578,46.863 -13.203,0 -26.84,-6.16 -34.761,-18.918 l -0.661,0 0,15.836 -29.699,0 0,-113.738"
         style="fill:#231f20;fill-opacity:1;fill-rule:nonzero;stroke:none"
         id="path52"
         inkscape:connector-curvature="0" /><path
         d="m 1018.32,454.684 66.22,0 0,26.839 -66.22,0 0,-26.839"
         style="fill:#231f20;fill-opacity:1;fill-rule:nonzero;stroke:none"
         id="path54"
         inkscape:connector-curvature="0" /></g></g></svg>